<svg viewBox="0 0 600 120" xmlns="http://www.w3.org/2000/svg">
    <defs>
        <!-- ЗК: зеленый круг с черной границей -->
        <circle id="zk" r="3" fill="#2ecc71" stroke="black" stroke-width="0.5" />
        <!-- Крестик -->
        <g id="cross">
            <line x1="-3" y1="-3" x2="3" y2="3" stroke="black" stroke-width="1" />
            <line x1="3" y1="-3" x2="-3" y2="3" stroke="black" stroke-width="1" />
        </g>
        <!-- Черная вертикальная ризка для оси R -->
        <line id="tick" x1="0" y1="-6" x2="0" y2="6" stroke="black" stroke-width="1.2" />
    </defs>
    <style>
        .axis-line { stroke: black; stroke-width: 2; fill: none; }
        .r-line-bg { stroke: #2ecc71; stroke-width: 4; fill: none; }
        .r-line-border { stroke: black; stroke-width: 0.5; fill: none; }
        .label { font-family: Arial, sans-serif; font-size: 14px; text-anchor: middle; fill: black; }
        .axis-name { font-family: "Times New Roman", serif; font-size: 24px; font-weight: bold; fill: black; }
    </style>

    <!-- 3. Ось Q -->
    <g transform="translate(0, 60)">
        <line x1="20" y1="0" x2="500" y2="0" class="axis-line" />
        <path d="M 490 -5 L 500 0 L 490 5" class="axis-line" />
        <text x="530" y="7" class="axis-name">ℚ</text>
        <!-- Z numbers -->
        <use href="#zk" x="50" y="0"/><use href="#zk" x="130" y="0"/><use href="#zk" x="250" y="0"/><use href="#zk" x="450" y="0"/>
        <!-- Q numbers (approx positions) -->
        <g transform="translate(94,0)"><use href="#zk"/><text y="-12" class="label">-3.9</text></g>
        <g transform="translate(103,0)"><use href="#zk"/><text y="-25" class="label">-11/3</text></g>
        <g transform="translate(205,0)"><use href="#zk"/><text y="-12" class="label">-1.(13)</text></g>
        <g transform="translate(263,0)"><use href="#zk"/><text y="-12" class="label">0.(3)</text></g>
        <g transform="translate(310,0)"><use href="#zk"/><text y="-12" class="label">1.5</text></g>
        <g transform="translate(398,0)"><use href="#zk"/><text y="-12" class="label">3.7</text></g>
        <g transform="translate(426,0)"><use href="#zk"/><text y="-12" class="label">4.4</text></g>

        <g transform="translate(50,0)"><use href="#zk"/><text y="25" class="label">-5</text></g>
        <g transform="translate(90,0)"><use href="#zk"/><text y="25" class="label">-4</text></g>
        <g transform="translate(130,0)"><use href="#zk"/><text y="25" class="label">-3</text></g>
        <g transform="translate(170,0)"><use href="#zk"/><text y="25" class="label">-2</text></g>
        <g transform="translate(210,0)"><use href="#zk"/><text y="25" class="label">-1</text></g>
        <g transform="translate(250,0)"><use href="#zk"/><text y="25" class="label">0</text></g>
        <g transform="translate(290,0)"><use href="#zk"/><text y="25" class="label">1</text></g>
        <g transform="translate(330,0)"><use href="#zk"/><text y="25" class="label">2</text></g>
        <g transform="translate(370,0)"><use href="#zk"/><text y="25" class="label">3</text></g>
        <g transform="translate(410,0)"><use href="#zk"/><text y="25" class="label">4</text></g>
        <g transform="translate(450,0)"><use href="#zk"/><text y="25" class="label">5</text></g>
    </g>
</svg>