<svg viewBox="0 0 600 120" xmlns="http://www.w3.org/2000/svg">
    <defs>
        <!-- ЗК: зеленый круг с черной границей -->
        <circle id="zk" r="3" fill="#2ecc71" stroke="black" stroke-width="0.5" />
        <!-- Крестик -->
        <g id="cross">
            <line x1="-3" y1="-3" x2="3" y2="3" stroke="black" stroke-width="1" />
            <line x1="3" y1="-3" x2="-3" y2="3" stroke="black" stroke-width="1" />
        </g>
        <!-- Черная вертикальная ризка для оси R -->
        <line id="tick" x1="0" y1="-6" x2="0" y2="6" stroke="black" stroke-width="1.2" />
    </defs>
    <style>
        .axis-line { stroke: black; stroke-width: 2; fill: none; }
        .r-line-bg { stroke: #2ecc71; stroke-width: 4; fill: none; }
        .r-line-border { stroke: black; stroke-width: 0.5; fill: none; }
        .label { font-family: Arial, sans-serif; font-size: 14px; text-anchor: middle; fill: black; }
        .axis-name { font-family: "Times New Roman", serif; font-size: 24px; font-weight: bold; fill: black; }
    </style>

    <!-- 5. Ось R -->
    <g transform="translate(0, 60)">
        <!-- Green line with black borders -->
        <line x1="20" y1="0" x2="500" y2="0" class="r-line-bg" />
        <line x1="20" y1="-2" x2="500" y2="-2" class="r-line-border" />
        <line x1="20" y1="2" x2="500" y2="2" class="r-line-border" />
        <!-- Arrowhead: Green fill, black border -->
        <path d="M 495 -5 L 505 0 L 495 5 Z" fill="#2ecc71" stroke="black" stroke-width="0.5" />
        <text x="460" y="-20" class="axis-name">ℝ = ℚ + 𝕀</text>

        <!-- Ticks and labels -->
        <!-- Integers (Bottom) -->
        <g transform="translate(50,0)"><use href="#tick"/><text y="25" class="label">-5</text></g>
        <g transform="translate(90,0)"><use href="#tick"/><text y="25" class="label">-4</text></g>
        <g transform="translate(130,0)"><use href="#tick"/><text y="25" class="label">-3</text></g>
        <g transform="translate(170,0)"><use href="#tick"/><text y="25" class="label">-2</text></g>
        <g transform="translate(210,0)"><use href="#tick"/><text y="25" class="label">-1</text></g>
        <g transform="translate(250,0)"><use href="#tick"/><text y="25" class="label">0</text></g>
        <g transform="translate(290,0)"><use href="#tick"/><text y="25" class="label">1</text></g>
        <g transform="translate(330,0)"><use href="#tick"/><text y="25" class="label">2</text></g>
        <g transform="translate(370,0)"><use href="#tick"/><text y="25" class="label">3</text></g>
        <g transform="translate(410,0)"><use href="#tick"/><text y="25" class="label">4</text></g>
        <g transform="translate(450,0)"><use href="#tick"/><text y="25" class="label">5</text></g>

        <!-- Rational/Irrational (Top) -->
        <g><use href="#tick" x="94"/><text x="94" y="-12" class="label">-3.9</text></g>
        <g><use href="#tick" x="124"/><text x="124" y="-24" class="label">-π</text></g>
        <g><use href="#tick" x="205"/><text x="205" y="-12" class="label">-1.(13)</text></g>
        <g><use href="#tick" x="263"/><text x="263" y="-12" class="label">0.(3)</text></g>
        <g><use href="#tick" x="307"/><text x="307" y="-12" class="label">√2</text></g>
        <g><use href="#tick" x="359"/><text x="359" y="-12" class="label">e</text></g>
        <g><use href="#tick" x="376"/><text x="376" y="-24" class="label">π</text></g>
    </g>
</svg>
